<svg width="336" height="336" viewBox="0 0 336 336" fill="none" xmlns="http://www.w3.org/2000/svg">
<g clip-path="url(#clip0)">
<path d="M326.726 146.715L287.321 107.31C271.116 91.1053 281.019 73.9999 298.678 72.9611C327.765 71.1605 344.108 40.1352 320.355 14.3039C294.523 -9.38058 263.637 6.89384 261.836 35.9108C260.728 53.5703 243.484 63.5427 227.348 47.4068L188.774 8.83292C177.209 -2.73231 158.441 -2.73231 146.876 8.83292L107.818 47.8915C91.6124 64.0967 74.4377 54.055 73.3297 36.3956C71.5291 7.30935 40.3653 -9.24208 14.534 14.5117C-9.28901 40.4122 7.26243 71.576 36.3486 73.3766C54.0081 74.4846 64.0498 91.7286 47.9139 107.934L8.99375 146.785C-2.57148 158.35 -2.57148 177.117 8.99375 188.683L47.5676 227.256C63.7728 243.392 54.1466 260.221 36.4871 261.329C7.40093 263.129 -8.87349 294.085 14.8802 319.917C40.7116 343.671 71.5291 327.465 73.3297 298.379C74.4377 280.72 91.3354 271.024 107.541 287.16L146.461 326.08C158.234 337.853 177.486 337.853 189.259 326.15L216.545 298.864L228.248 287.16C243.553 271.163 233.65 254.334 216.198 253.226C187.112 251.426 170.63 220.262 194.384 194.431C220.215 170.677 251.379 187.228 253.179 216.314C254.287 233.766 271.047 243.6 287.044 228.295L297.64 217.7L326.172 189.167C326.241 189.098 326.241 189.098 326.31 189.029L326.726 188.613C338.291 177.048 338.291 158.281 326.726 146.715Z" fill="#3B3B3B"/>
</g>
<defs>
<clipPath id="clip0">
<rect width="335.08" height="335.08" fill="white" transform="translate(0.319824 -0.000976562)"/>
</clipPath>
</defs>
</svg>
