<svg width="298" height="280" viewBox="0 0 298 280" fill="none" xmlns="http://www.w3.org/2000/svg">
<path d="M298 24C298 10.745 287.255 0 274 0H24C10.745 0 0 10.745 0 24V256C0 269.255 10.745 280 24 280H274C287.255 280 298 269.255 298 256V24ZM91 30H134V64H91V30ZM61 250H30V216H61V250ZM61 64H30V30H61V64ZM134 250H91V216H134V250ZM123 167.708V112.291C123 104.041 128.868 100.989 135.77 105.508L176.007 131.78C182.909 136.299 182.965 143.694 176.063 148.214L135.742 174.491C128.84 179.011 123 175.958 123 167.708ZM207 250H164V216H207V250ZM207 64H164V30H207V64ZM268 250H237V216H268V250ZM268 64H237V30H268V64Z" fill="#3B3B3B"/>
</svg>
